<?xml version="1.0" standalone="no"?>
<!DOCTYPE svg PUBLIC "-//W3C//DTD SVG 20010904//EN"
 "http://www.w3.org/TR/2001/REC-SVG-20010904/DTD/svg10.dtd">
<svg version="1.0" xmlns="http://www.w3.org/2000/svg"
 width="335.000000pt" height="307.000000pt" viewBox="0 0 335.000000 307.000000"
 preserveAspectRatio="xMidYMid meet">

<g transform="translate(0.000000,307.000000) scale(0.100000,-0.100000)"
fill="#000000" stroke="none">
<path d="M1645 2714 c-81 -99 -123 -254 -105 -387 16 -118 110 -287 160 -287
36 0 112 121 144 229 39 133 5 310 -82 431 -30 41 -51 60 -68 60 -6 0 -28 -21
-49 -46z m92 -66 c58 -97 68 -134 68 -248 0 -80 -5 -117 -19 -155 l-20 -50
-12 47 c-6 26 -20 90 -30 143 -25 135 -29 132 -64 -50 -12 -60 -25 -114 -30
-119 -5 -5 -16 17 -27 50 -25 83 -23 211 6 284 23 61 76 150 89 150 4 0 22
-24 39 -52z"/>
<path d="M1135 2390 c-3 -5 -6 -40 -6 -78 -1 -154 91 -287 237 -344 43 -17 45
-17 65 3 19 19 21 29 16 95 -10 134 -83 246 -201 308 -50 27 -100 34 -111 16z
m150 -102 c51 -45 90 -107 99 -158 l7 -35 -60 64 c-33 36 -63 62 -67 59 -3 -4
7 -43 24 -87 l30 -81 -25 20 c-60 47 -104 133 -111 217 l-5 63 31 -11 c17 -6
52 -29 77 -51z"/>
<path d="M2142 2369 c-65 -32 -123 -92 -163 -168 -17 -33 -24 -66 -27 -128 -7
-121 15 -137 118 -86 114 57 189 174 198 309 7 113 -17 128 -126 73z m74 -74
c-6 -70 -48 -163 -92 -206 -18 -18 -36 -31 -38 -28 -2 2 9 38 24 79 16 40 27
76 24 79 -2 3 -34 -24 -70 -60 -60 -59 -65 -62 -58 -34 18 81 98 178 173 212
41 18 42 16 37 -42z"/>
<path d="M628 2119 c-23 -13 -23 -36 3 -103 49 -131 165 -250 289 -296 110
-40 263 -47 291 -13 28 33 -45 184 -131 271 -67 67 -176 127 -259 142 -69 13
-171 12 -193 -1z m209 -53 c28 -8 72 -24 96 -36 50 -25 135 -100 163 -144 l18
-29 -23 8 c-13 4 -72 26 -132 50 -59 23 -111 40 -114 37 -3 -3 40 -52 96 -108
l102 -103 -42 10 c-69 15 -161 68 -215 122 -49 49 -105 135 -120 185 -7 21 -5
22 56 22 35 0 86 -6 115 -14z"/>
<path d="M2550 2114 c-90 -24 -161 -65 -231 -135 -71 -70 -127 -167 -136 -237
-5 -35 -3 -41 18 -48 34 -11 151 -8 212 6 163 38 311 181 367 353 10 33 10 41
-6 58 -14 16 -30 19 -93 18 -42 0 -101 -7 -131 -15z m180 -45 c0 -29 -70 -146
-117 -194 -57 -58 -185 -129 -221 -123 -19 3 -15 10 35 63 115 122 127 135
122 140 -3 2 -61 -18 -129 -46 -67 -27 -127 -48 -132 -47 -15 5 89 114 142
148 28 18 76 40 108 51 63 20 192 26 192 8z"/>
<path d="M1568 1895 c-103 -42 -138 -63 -192 -110 -36 -32 -66 -62 -66 -66 0
-7 25 -19 40 -19 5 0 25 14 45 32 35 30 36 30 31 7 -3 -13 -8 -59 -11 -101
l-7 -76 -126 -41 c-70 -23 -167 -62 -217 -89 -113 -60 -119 -73 -82 -169 49
-124 114 -222 211 -318 156 -155 296 -217 491 -218 130 -1 204 16 320 72 155
76 282 208 372 387 53 107 65 170 36 196 -45 41 -289 146 -374 162 -21 4 -41
12 -47 19 -5 6 -12 52 -16 100 -8 96 -9 94 45 54 25 -18 69 -17 69 1 0 4 -32
34 -71 66 -66 57 -106 78 -279 146 l-45 18 -127 -53z m232 -44 c68 -28 98 -45
107 -62 6 -13 14 -68 18 -121 8 -110 12 -105 -67 -92 l-38 7 0 83 c0 102 -3
104 -129 104 -116 0 -121 -5 -121 -110 l0 -79 -46 -7 c-25 -3 -49 -3 -54 2
-10 10 7 214 19 226 8 9 192 86 206 87 6 0 53 -17 105 -38z m-120 -195 c0 -49
-4 -65 -16 -70 -39 -15 -44 -8 -44 64 l0 70 30 0 30 0 0 -64z m100 0 c0 -68
-7 -81 -40 -71 -17 5 -20 15 -20 71 l0 64 30 0 30 0 0 -64z m67 -131 c45 -3
127 -17 182 -31 171 -43 351 -127 351 -164 0 -17 -9 -15 -82 20 -116 55 -213
73 -362 68 -151 -6 -256 -39 -380 -122 -121 -80 -199 -170 -266 -304 l-27 -54
-52 58 c-29 31 -71 85 -94 118 -39 58 -107 198 -107 222 0 15 153 94 245 127
130 46 349 79 470 71 22 -2 77 -6 122 -9z m348 -189 c44 -15 99 -39 123 -52
41 -24 43 -27 29 -47 -12 -19 -27 -23 -98 -29 -147 -11 -261 -48 -375 -120
-76 -47 -203 -178 -244 -252 l-31 -54 -62 14 c-64 15 -198 76 -217 99 -25 30
74 189 180 288 80 76 215 148 321 172 102 23 274 14 374 -19z m105 -182 c0
-16 -78 -120 -129 -171 -99 -100 -195 -155 -338 -193 -67 -19 -173 -27 -173
-15 0 11 68 112 100 149 52 59 144 124 233 166 88 41 149 56 290 68 9 1 17 -1
17 -4z"/>
<path d="M276 498 c-6 -43 -26 -232 -26 -243 0 -3 16 -5 35 -5 l35 0 1 55 c1
30 3 60 4 65 1 6 3 18 4 27 2 27 16 3 35 -60 17 -56 19 -58 48 -55 26 3 33 10
48 48 34 91 32 88 40 55 4 -16 8 -54 9 -82 l1 -53 36 0 36 0 -6 62 c-3 35 -9
100 -12 146 l-7 82 -47 0 -48 0 -17 -65 c-10 -36 -22 -68 -26 -71 -8 -4 -22
37 -35 104 -6 31 -8 32 -55 32 l-48 0 -5 -42z"/>
<path d="M700 395 l0 -145 40 0 40 0 0 145 0 145 -40 0 -40 0 0 -145z"/>
<path d="M897 533 c-4 -3 -7 -19 -7 -35 0 -25 3 -28 35 -28 l35 0 0 -110 0
-110 40 0 40 0 0 110 0 110 35 0 c33 0 35 2 35 35 l0 35 -103 0 c-57 0 -107
-3 -110 -7z"/>
<path d="M1196 518 c-11 -42 -7 -48 28 -48 33 0 34 -1 40 -51 4 -27 4 -77 0
-110 l-7 -59 42 0 41 0 0 110 0 110 35 0 c33 0 35 2 35 35 l0 35 -104 0 c-99
0 -104 -1 -110 -22z"/>
<path d="M1520 395 l0 -145 40 0 40 0 0 145 0 145 -40 0 -40 0 0 -145z"/>
<path d="M1861 413 c-15 -172 -16 -163 18 -163 24 0 29 5 35 31 3 17 6 53 6
80 0 27 4 49 9 49 5 0 17 -29 27 -65 18 -62 20 -65 51 -65 30 0 32 3 53 65 12
36 26 65 31 65 5 0 9 -36 9 -80 l0 -80 36 0 37 0 -7 123 c-10 170 -9 167 -62
167 -27 0 -46 -5 -49 -12 -2 -7 -11 -39 -20 -70 -19 -65 -30 -73 -39 -26 -3
18 -11 49 -17 70 -10 37 -11 38 -58 38 l-48 0 -12 -127z"/>
<path d="M2316 407 c-22 -72 -42 -138 -44 -144 -3 -9 8 -13 36 -13 34 0 41 3
44 23 3 19 10 22 51 25 45 3 47 2 47 -22 0 -24 3 -26 45 -26 31 0 43 4 40 13
-4 12 -45 159 -65 235 l-11 42 -52 0 -52 0 -39 -133z m108 1 c7 -36 5 -38 -19
-38 -28 0 -31 11 -14 59 13 38 24 31 33 -21z"/>
<path d="M2627 533 c-4 -3 -7 -19 -7 -35 0 -25 3 -28 35 -28 l35 0 0 -110 0
-110 40 0 40 0 0 110 0 110 35 0 c33 0 35 2 35 35 l0 35 -103 0 c-57 0 -107
-3 -110 -7z"/>
<path d="M2950 395 l0 -146 98 3 97 3 3 33 3 32 -60 0 c-54 0 -61 2 -61 20 0
17 7 20 45 20 45 0 45 0 45 35 0 35 0 35 -45 35 -38 0 -45 3 -45 20 0 18 7 20
60 20 l60 0 0 35 0 35 -100 0 -100 0 0 -145z"/>
</g>
</svg>
